<svg width="111" height="19" viewBox="0 0 111 19" fill="none" xmlns="http://www.w3.org/2000/svg">
<path d="M3.30078 14.8125C3.34766 14.8438 3.47266 14.8984 3.67578 14.9766C3.88672 15.0547 4.16406 15.1328 4.50781 15.2109C4.85156 15.2812 5.23047 15.3164 5.64453 15.3164C6.45703 15.3164 7.14453 15.1445 7.70703 14.8008C8.26953 14.457 8.55078 13.9805 8.55078 13.3711C8.55078 13.0039 8.42578 12.6953 8.17578 12.4453C7.93359 12.1953 7.62109 11.9883 7.23828 11.8242C6.86328 11.6523 6.31641 11.4375 5.59766 11.1797C4.54297 10.8125 3.67188 10.4492 2.98438 10.0898C2.29688 9.73047 1.69922 9.21094 1.19141 8.53125C0.691406 7.85156 0.441406 6.96875 0.441406 5.88281C0.441406 4.8125 0.703125 3.89453 1.22656 3.12891C1.75781 2.35547 2.48438 1.77344 3.40625 1.38281C4.32812 0.992188 5.37109 0.796875 6.53516 0.796875C7.33203 0.796875 8.12109 0.867188 8.90234 1.00781C9.69141 1.14844 10.3398 1.29688 10.8477 1.45312C11.3633 1.60156 11.6875 1.70312 11.8203 1.75781L11.6914 6.11719H9.48828L8.89062 4.07812C8.82812 4.0625 8.69141 4.02734 8.48047 3.97266C8.26953 3.91797 8.00781 3.86328 7.69531 3.80859C7.38281 3.74609 7.07812 3.71484 6.78125 3.71484C5.96875 3.71484 5.33984 3.875 4.89453 4.19531C4.44922 4.51562 4.22656 4.92578 4.22656 5.42578C4.22656 5.94141 4.46484 6.34766 4.94141 6.64453C5.42578 6.93359 6.1875 7.26172 7.22656 7.62891C8.28125 7.99609 9.14844 8.35547 9.82812 8.70703C10.5156 9.05859 11.1016 9.5625 11.5859 10.2188C12.0781 10.875 12.3242 11.7148 12.3242 12.7383C12.3242 13.9102 12.043 14.918 11.4805 15.7617C10.918 16.5977 10.1484 17.2344 9.17188 17.6719C8.19531 18.1016 7.08594 18.3164 5.84375 18.3164C5.04688 18.3164 4.25 18.2461 3.45312 18.1055C2.66406 17.9727 2.00781 17.8359 1.48438 17.6953C0.960938 17.5469 0.628906 17.4492 0.488281 17.4023V12.7969H2.9375L3.30078 14.8125ZM19.8711 11.5195C19.8711 12.9102 20.1016 13.8984 20.5625 14.4844C21.0234 15.0703 21.8398 15.3633 23.0117 15.3633C23.8398 15.3633 24.4766 15.2148 24.9219 14.918C25.375 14.6211 25.6836 14.1719 25.8477 13.5703C26.0195 12.9688 26.1055 12.1641 26.1055 11.1562V3.96094L24.2305 3.23438V1.19531L31.625 1.07812V3.23438L29.832 3.96094V11.1562C29.832 13.5547 29.2969 15.3438 28.2266 16.5234C27.1641 17.7031 25.3867 18.293 22.8945 18.293C20.5117 18.293 18.7891 17.75 17.7266 16.6641C16.6719 15.5703 16.1445 13.8555 16.1445 11.5195V3.96094L14.375 3.23438V1.19531L21.7344 1.07812V3.23438L19.8711 3.96094V11.5195ZM41.3516 1.07812C42.9688 1.07812 44.25 1.42578 45.1953 2.12109C46.1484 2.81641 46.625 3.85156 46.625 5.22656C46.625 7.25781 45.668 8.57812 43.7539 9.1875C44.8711 9.50781 45.7188 9.99609 46.2969 10.6523C46.8828 11.3086 47.1758 12.1016 47.1758 13.0312C47.1758 16.3438 45.0977 18 40.9414 18H33.3125V15.9609L35.1055 15.2344V3.96094L33.3125 3.23438V1.19531L38.832 1.07812H41.3516ZM40.2266 7.99219C41.1016 7.99219 41.7656 7.80469 42.2188 7.42969C42.6797 7.05469 42.9102 6.5 42.9102 5.76562C42.9102 5.17188 42.7227 4.72266 42.3477 4.41797C41.9727 4.11328 41.4805 3.96094 40.8711 3.96094H38.832V7.99219H40.2266ZM40.8242 15.1172C41.6523 15.1172 42.2852 14.9375 42.7227 14.5781C43.168 14.2188 43.3906 13.7031 43.3906 13.0312C43.3906 12.1641 43.1328 11.5273 42.6172 11.1211C42.1094 10.7148 41.3125 10.5117 40.2266 10.5117H38.832V15.1172H40.8242ZM49.1094 15.9609L50.9023 15.2344V3.96094L49.1094 3.23438V1.19531L56.5508 1.07812V3.23438L54.6289 3.96094V7.80469H60.9102V3.96094L58.9883 3.23438V1.19531L66.4297 1.07812V3.23438L64.6367 3.96094V15.2344L66.4297 15.9609V18H58.9883V15.9609L60.9102 15.2344V10.6758H54.6289V15.2344L56.5508 15.9609V18H49.1094V15.9609ZM76.5078 0.796875C78.9141 0.796875 80.7773 1.54688 82.0977 3.04688C83.418 4.53906 84.0781 6.62891 84.0781 9.31641C84.0781 11.0898 83.7422 12.6562 83.0703 14.0156C82.3984 15.375 81.4531 16.4336 80.2344 17.1914C79.0156 17.9414 77.6172 18.3164 76.0391 18.3164C73.6406 18.3164 71.8008 17.582 70.5195 16.1133C69.2383 14.6367 68.5977 12.4883 68.5977 9.66797C68.5977 7.84766 68.9141 6.26953 69.5469 4.93359C70.1875 3.59766 71.1055 2.57422 72.3008 1.86328C73.4961 1.15234 74.8984 0.796875 76.5078 0.796875ZM76.3906 3.79688C75.1406 3.79688 74.207 4.24219 73.5898 5.13281C72.9805 6.01562 72.6758 7.48828 72.6758 9.55078C72.6758 11.5352 72.9531 12.9922 73.5078 13.9219C74.0703 14.8516 74.9531 15.3164 76.1562 15.3164C77.4062 15.3164 78.3555 14.8555 79.0039 13.9336C79.6602 13.0117 79.9883 11.5117 79.9883 9.43359C79.9883 7.48047 79.6914 6.05469 79.0977 5.15625C78.5117 4.25 77.6094 3.79688 76.3906 3.79688ZM85.5078 1.19531L92.6328 1.07812V3.23438L90.8867 3.96094L92.9492 12.5977L96.3125 1.27734L99.5469 1.07812L102.77 12.5742L105.066 3.96094L103.273 3.23438V1.19531L110.105 1.07812V3.23438L108.383 3.96094L104.281 18H100.871L97.7305 6.59766L97.1562 8.88281L94.3906 18H91.0742L87.1953 3.9375L85.5078 3.23438V1.19531Z" fill="#FFC10C"/>
</svg>
