<svg height="64" preserveAspectRatio="none" viewBox="0 0 64 64" width="64" xmlns="http://www.w3.org/2000/svg" xmlns:xlink="http://www.w3.org/1999/xlink"><radialGradient id="a" cx="28.692383" cy="61.083984" gradientTransform="matrix(1.284 0 0 .3673862 -4.841728 36.438221)" gradientUnits="userSpaceOnUse" r="13.079342"><stop offset="0" stop-color="#595959"/><stop offset=".444525" stop-color="#565656" stop-opacity=".555475"/><stop offset=".7753148" stop-color="#4d4d4d" stop-opacity=".224685"/><stop offset="1" stop-color="#414141" stop-opacity="0"/></radialGradient><linearGradient id="b"><stop offset="0" stop-color="#fff"/><stop offset=".2067994" stop-color="#f6f7f6"/><stop offset=".5439752" stop-color="#dfe1de"/><stop offset=".9673755" stop-color="#b8bdb6"/><stop offset="1" stop-color="#b5bab3"/></linearGradient><linearGradient id="c" gradientUnits="userSpaceOnUse" x1="32" x2="32" xlink:href="#b" y1="3" y2="7.927767"/><linearGradient id="d" gradientUnits="userSpaceOnUse" x1="32" x2="32" xlink:href="#b" y1="4.583008" y2="4.583008"/><linearGradient id="e" gradientUnits="userSpaceOnUse" x1="22.577148" x2="37.910511" y1="10.417969" y2="64.502579"><stop offset="0" stop-color="#bf0000"/><stop offset=".2346562" stop-color="#b60000"/><stop offset=".6172314" stop-color="#9e0000"/><stop offset="1" stop-color="#7f0000"/></linearGradient><linearGradient id="f"><stop offset="0" stop-color="#489f00"/><stop offset=".2346562" stop-color="#409600"/><stop offset=".6172314" stop-color="#2b7e00"/><stop offset="1" stop-color="#105f00"/></linearGradient><linearGradient id="g" gradientUnits="userSpaceOnUse" x1="30.325684" x2="31.345192" xlink:href="#f" y1="47.547852" y2="51.779858"/><linearGradient id="h" gradientUnits="userSpaceOnUse" x1="32.675781" x2="33.264465" xlink:href="#f" y1="48.024414" y2="50.468063"/><linearGradient id="i" gradientTransform="matrix(-.5688 0 0 1.5037999 18.838759 -7.851959)" gradientUnits="userSpaceOnUse" x1="-22.749512" x2="-22.189943" xlink:href="#f" y1="36.540039" y2="38.862827"/><linearGradient id="j" gradientUnits="userSpaceOnUse" x1="30.967773" x2="33.55999" y1="47.081055" y2="57.841419"><stop offset="0" stop-color="#f00"/><stop offset=".1409149" stop-color="#f60000"/><stop offset=".3707701" stop-color="#de0000"/><stop offset=".6608999" stop-color="#b60000"/><stop offset=".9971457" stop-color="#7f0000"/><stop offset="1" stop-color="#7f0000"/></linearGradient><linearGradient id="k" gradientUnits="userSpaceOnUse" x1="31.966309" x2="32.869808" xlink:href="#f" y1="48.189453" y2="51.939907"/><ellipse cx="32" cy="58.879883" fill="url(#a)" rx="17.322266" ry="5.120117"/><path d="m36.9160156 1.75h-4.9155273-4.9165039c-1.9165039.5-1.1665039 5.6665039-1.1665039 5.6665039h6.0830078 6.0825195s.75-5.1665039-1.1669922-5.6665039z" fill="url(#c)"/><path d="m26.063965 4.583008h11.872558" fill="url(#d)"/><path d="m26.063965 4.333008h11.872559v.5h-11.872559z" fill="#c0c1c2"/><path d="m38.0830078 8.1665039h-12.1655273c-.3725586 0-.6884766-.2734375-.7421875-.6420898-.1416016-.9736328-.7226563-5.862793 1.7192383-6.5.0620117-.0161133.1254882-.0244141.1894531-.0244141h9.8320313c.0634766 0 .1279297.0083008.1894531.0244141 2.4423828.6367188 1.8613281 5.5263672 1.7197266 6.5-.053711.3686523-.3691407.6420898-.7421876.6420898zm-11.4995117-1.5h10.8334961c.1796875-1.8930664-.0234375-3.878418-.6240234-4.1665039h-9.5854492c-.600586.2880859-.803711 2.2734375-.6240235 4.1665039z" fill="#230b00"/><path d="m44.6660156 27.5834961c-3.265625-5.7353516-6.5839844-20.1669922-6.5839844-20.1669922h-6.081543-.0004882-6.0825195s-3.3173828 14.4316406-6.5834961 20.1669922c-3.4165039 5.9995117-2.2314453 18.980957-2.1479492 21.3149414s-.0410156 11.5185547 4.8144531 11.5185547h9.9995117.0004883 9.9995117c4.8554688 0 4.7304688-9.1845703 4.8144531-11.5185547.0830078-2.3339844 1.2675782-15.3154297-2.1484375-21.3149414z" fill="url(#e)"/><path d="m42 61.1669922h-19.9995117c-5.2583008 0-5.4692383-8.4902344-5.5483398-11.6865234l-.015625-.5556641c-.0087891-.2392578-.0288086-.5917969-.0546875-1.0400391-.237793-4.1308594-.8701172-15.1054688 2.300293-20.6723633 3.1743164-5.5737305 6.4716797-19.8208008 6.5043945-19.9638672.078125-.3408203.3813477-.5820313.730957-.5820313h12.1645508c.3496094 0 .6523438.2412109.7304688.5820313.0332031.1430664 3.3320313 14.3901367 6.5048828 19.9638672 3.1689453 5.565918 2.5390625 16.5385742 2.3017578 20.6694336-.0263672.4492188-.046875.8037109-.0546875 1.0429688l-.015625.5576172c-.0800782 3.196289-.2919923 11.6845703-5.5488282 11.6845703zm-15.4882812-53.0004883c-.6650391 2.796875-3.5795898 14.6142578-6.5258789 19.7880859-2.9506836 5.1821289-2.3154297 16.2172852-2.1064453 19.8442383.0263672.4619141.0473633.8261719.0561523 1.0732422l.0161133.5703125c.0625 2.5292969.253418 10.2246094 4.0488281 10.2246094h19.9995117c3.7939453 0 3.9853516-7.6933594 4.0488281-10.2216797l.015625-.5742188c.0087891-.2470703.0302734-.6123047.0566406-1.0751953.2089844-3.6259766.8427734-14.6611328-2.1064453-19.8413086-2.9462891-5.1738281-5.8613281-16.9912109-6.5273438-19.7880859z" fill="#230b00"/><path d="m33.8466797 6.0834961h-3.6938477c-.7558594 0-1.3710938-.6728516-1.3710938-1.5h.5c0 .5512695.390625 1 .8710938 1h3.6938477c.4804688 0 .8720703-.4487305.8720703-1h.5c0 .8271484-.6152344 1.5-1.3720703 1.5z" fill="#c0c1c2"/><g fill="#fff"><path d="m27.5004883 9.4165039h4.4995117s-2.0825195 13.2504883-4.9160156 18.5834961-6.4165039 4.3339844-7.1665039 10.5-.1669922 14.9160156-.1669922 14.9160156l-.5830078-1.3330078s-2.5839844-17.4990234 1.8330078-23.4995117c4.4169922-6 6.5-19.1669922 6.5-19.1669922z" opacity=".59"/><path d="m32.8862305 31.2832031s9.5317383-.1166992 10.1977539.7167969 2 10.75 2 10.75.5839844-10.6665039-1.5-12-8.5-.925293-8.5-.925293z" opacity=".19"/><path d="m35.3144531 57.6142578h-6.6289063c-3.0444336 0-5.7451172-2.8125-6.1489258-6.4042969l-1.1044922-9.8085938c-.2016602-1.796875.3510742-3.5751953 1.5170898-4.8798828 1.1665039-1.3046875 2.8720703-2.0527344 4.6796875-2.0527344h8.7021484c1.8486328 0 3.5546875.7480469 4.7207031 2.0537109 1.1660156 1.3046875 1.71875 3.0830078 1.5166016 4.8789063l-1.1044922 9.8095703c-.4042967 3.5908204-3.1054686 6.4033204-6.1494139 6.4033204zm-7.6455078-18.4169922c-.5102539 0-.9199219.1689453-1.1943359.4755859-.2739258.3066406-.3959961.7324219-.3432617 1.2001953l1.1044922 9.8085938c.1508789 1.3457031 1.0371094 2.2041016 1.449707 2.2041016h6.6289063c.4130859 0 1.2988281-.8583984 1.4501953-2.2041016l1.1044922-9.8095703c.0527344-.4667969-.0693359-.8925781-.3427734-1.1992188-.2744141-.3066406-.6845703-.4755859-1.1542969-.4755859z"/></g><path d="m35.3144531 57.1416016h-6.6289063c-2.8071289 0-5.3017578-2.6289063-5.6787109-5.984375l-1.1044922-9.8085938c-.1899414-1.6875.3071289-3.2900391 1.3994141-4.5117188 1.0927734-1.2226563 2.6293945-1.8955078 4.3271484-1.8955078h8.7021484c1.7392578 0 3.2753906.6738281 4.3681641 1.8955078 1.0917969 1.2226563 1.5888672 2.8242188 1.3994141 4.5117188l-1.1044922 9.8095703c-.3779297 3.3544922-2.8730468 5.9833985-5.6796875 5.9833985zm-7.6455078-18.4169922c-.6464844 0-1.1816406.2246094-1.546875.6328125-.3647461.4082031-.5283203.9658203-.4609375 1.5683594l1.1044922 9.8085938c.1801758 1.6025391 1.2573242 2.6240234 1.9199219 2.6240234h6.6289063c.6621094 0 1.7402344-1.0224609 1.9199219-2.6240234l1.1044922-9.8095703c.0683594-.6025391-.0957031-1.1582031-.4599609-1.5673828-.3652344-.4082031-.9003906-.6328125-1.5068359-.6328125h-8.7031252z" fill="#00893a"/><path d="m35.3144531 56.1953125h-6.6289063c-2.2944336 0-4.4204102-2.3066406-4.7392578-5.1435547l-1.1044922-9.8095703c-.1591797-1.4160156.2548828-2.7568359 1.1650391-3.7753906.9106445-1.0185547 2.1972656-1.5791016 3.6220703-1.5791016h8.7021484c1.4658203 0 2.7519531.5605469 3.6630859 1.5800781.9101563 1.0185547 1.3242188 2.359375 1.1640625 3.7744141l-1.1044922 9.8095703c-.3193358 2.8369141-2.4453124 5.1435547-4.7392577 5.1435547zm-7.6455078-18.4169922c-.9194336 0-1.7050781.3369141-2.2519531.9492188-.5463867.6113281-.793457 1.4296875-.6953125 2.3037109l1.1044922 9.8095703c.2109375 1.8769531 1.5205078 3.4638672 2.859375 3.4638672h6.6289063c1.3388672 0 2.6484375-1.5869141 2.8603516-3.4638672l1.1044922-9.8095703c.0976563-.8740234-.1484375-1.6914063-.6953125-2.3037109-.546875-.6113281-1.3330078-.9492188-2.2119141-.9492188z" fill="#804f21"/><path d="m36.3310547 36.8330078c-2.3818359 0-6.2797852 0-8.6621094 0h-.0400391c-2.3823242 0-4.1132813 1.9365234-3.847168 4.3037109l1.1044922 9.8095703c.2661134 2.3671876 1.9760743 4.303711 3.7993165 4.303711s4.8066406 0 6.6289063 0c1.8232422 0 3.5332031-1.9365234 3.7998047-4.3037109l1.1044922-9.8095703c.2666016-2.3671875-1.4648438-4.3037109-3.8466797-4.3037109h-.0410157z" fill="#fff"/><path d="m27.1704102 39.9042969c.1064453 0 .1586914-.0117188.1938477-.0234375.0356445-.0126953.0546875-.0244141.090332-.0244141.1665039 0 .2651367.4423828.2651367.6367188 0 .2148438-.0712891.40625-.2270508.40625-.2075195 0-.171875-.5039063-.2919922-.5039063-.0874023 0-.090332.1708984-.1123047.4628906-.0161133.2441406-.0737305.8730469-.0737305 1.2177734 0 .3486328.2080078.1708984.2080078.4140625 0 .1220703-.0986328.2919922-.6665039.2919922-.4916992 0-.5-.1904297-.5-.2753906 0-.2441406.1938477-.1220703.2431641-.3173828.0654297-.2597656.1611328-1.5986328.1611328-1.6591797 0-.0615234-.0166016-.1347656-.0654297-.1347656-.1367188 0-.1040039.5039063-.347168.5039063-.1254883 0-.1938477-.1298828-.1938477-.3046875 0-.2558594.1586914-.7382813.3603516-.7382813.0273438 0 .0522461.0117188.0795898.0244141.0297852.0117188.0600586.0234375.0981445.0234375z"/><path d="m28.4912109 42.8066406c-.4643555 0-.8081055-.3935547-.8081055-1.1123047 0-1.0107422.5322266-1.8466797 1.2016602-1.8466797.4643555 0 .8085938.3935547.8085938 1.1123047 0 1.0107422-.5327149 1.8466797-1.2021485 1.8466797zm.4672852-1.9199218c0-.1582031-.0083008-.5351563-.1748047-.515625-.2924805 0-.3662109 1.0839844-.3662109 1.3964844 0 .1582031.0083008.5361328.1748047.515625.2924804-.0000001.3662109-1.0839844.3662109-1.3964844z"/><path d="m30.9672852 42.125c-.0410156.0976563-.1254883.3046875-.2128906.3046875-.0927734 0-.1147461-.1386719-.1391602-.2441406l-.109375-.4912109c-.0053711-.0283203-.0571289-.2958984-.090332-.2958984-.0351563 0-.0463867.1259766-.0517578.1542969-.0053711.0400391-.0791016.5400391-.0791016.6660156 0 .1777344.1337891.1455078.1337891.3037109 0 .1337891-.0356445.2597656-.4589844.2597656-.1147461 0-.3413086-.0039063-.3413086-.2431641 0-.2763672.152832-.1142578.2128906-.3574219.1230469-.4873047.2597656-1.1318359.2651367-1.5869141.0029297-.3125-.2265625-.1464844-.2265625-.3974609 0-.0810547.0297852-.3251953.5761719-.3251953.2211914 0 .262207.0693359.3442383.3574219.0737305.2558594.1474609.8076172.2211914.8076172.0874023 0 .3305664-.7304688.3657227-.8242188.1147461-.3085938.2270508-.3408203.4506836-.3408203.1259766 0 .4072266.0039063.4072266.2724609 0 .3164063-.2050781.0400391-.2431641.5107422-.0244141.4755859-.0629883.9580078-.0629883 1.4375 0 .2675781.1533203.2265625.1533203.3857422 0 .2304688-.2348633.3037109-.6040039.3037109-.1225586 0-.409668-.0039063-.409668-.2675781 0-.1992188.1503906-.1464844.1831055-.2636719.0439453-.1621094.0874023-.609375.0874023-.7919922 0-.0283203.0029297-.0810547-.0273438-.0810547-.0356445 0-.1118164.1992188-.1308594.2441406z"/><path d="m32.9296875 42.0761719c-.1367188.0166016-.1586914.0732422-.1586914.1787109 0 .1298828.1557617.0361328.1557617.2558594 0 .1416016-.0410156.2714844-.5078125.2714844-.1337891 0-.3413086 0-.3413086-.2675781 0-.2597656.1308594-.0771484.2485352-.3652344.2456055-.609375.5922852-1.3310547.6875-1.9726563.0410156-.2802734.1474609-.3291016.3173828-.3291016.2509766 0 .3544922.203125.4335938.5322266.0820313.3408203.2402344 1.4199219.2871094 1.7207031.0488281.3242188.1992188.1220703.1992188.3935547 0 .3164063-.4394531.2880859-.5761719.2880859-.1123047 0-.4257813.0283203-.4257813-.2353516 0-.2353516.1748047-.1337891.1748047-.3242188 0-.1259766-.0664063-.1181641-.1289063-.1464844h-.3652344zm.3164063-.4667969c.0791016-.0078125.0898438-.0400391.0898438-.1054688 0-.1660156-.0869141-.5683594-.1337891-.5683594-.0683594 0-.215332.5361328-.215332.6044922 0 .0449219.0405273.0615234.081543.0693359h.1777343z"/><path d="m35.7001953 39.9042969c.1064453 0 .1582031-.0117188.1943359-.0234375.0351563-.0126953.0546875-.0244141.0898438-.0244141.1669922 0 .2646484.4423828.2646484.6367188 0 .2148438-.0703125.40625-.2265625.40625-.2070313 0-.171875-.5039063-.2919922-.5039063-.0878906 0-.0898438.1708984-.1123047.4628906-.0166016.2441406-.0732422.8730469-.0732422 1.2177734 0 .3486328.2070313.1708984.2070313.4140625 0 .1220703-.0976563.2919922-.6660156.2919922-.4921875 0-.5-.1904297-.5-.2753906 0-.2441406.1943359-.1220703.2431641-.3173828.0654297-.2597656.1611328-1.5986328.1611328-1.6591797 0-.0615234-.0166016-.1347656-.0654297-.1347656-.1367188 0-.1035156.5039063-.3466797.5039063-.1259766 0-.1943359-.1298828-.1943359-.3046875 0-.2558594.1582031-.7382813.3603516-.7382813.0273438 0 .0517578.0117188.0791016.0244141.0302734.0117188.0605469.0234375.0986328.0234375z"/><path d="m37.0205078 42.8066406c-.4638672 0-.8085938-.3935547-.8085938-1.1123047 0-1.0107422.5332031-1.8466797 1.2021484-1.8466797.4638672 0 .8085938.3935547.8085938 1.1123047.0000001 1.0107422-.5332031 1.8466797-1.2021484 1.8466797zm.4667969-1.9199218c0-.1582031-.0078125-.5351563-.1748047-.515625-.2919922 0-.3652344 1.0839844-.3652344 1.3964844 0 .1582031.0078125.5361328.1748047.515625.2919922-.0000001.3652344-1.0839844.3652344-1.3964844z"/><path d="m26.605957 44.6914063c-.0986328.1220703-.1860352.2441406-.1860352.2929688 0 .0361328.0302734.1210938.0410156.1582031l.3852539 1.0507813c.0791016.1826172.1992188.1787109.1992188.3330078 0 .1376953-.0219727.2431641-.4453125.2431641-.2836914 0-.300293-.0732422-.4150391-.4423828l-.1855469-.53125c-.0166016-.0449219-.0629883-.1953125-.1040039-.1953125-.0708008 0-.0600586.2197266-.0625.2802734 0 .0888672-.0058594.2109375.0024414.2958984.019043.1630859.1337891.1425781.1337891.2890625 0 .3125-.3847656.3037109-.5327148.3037109-.4584961 0-.4560547-.1738281-.4560547-.2714844 0-.2070313.1337891-.0859375.1831055-.3496094.0766602-.3935547.1586914-1.2294922.1586914-1.6474609 0-.2070313-.1533203-.1181641-.1533203-.3369141 0-.2519531.2978516-.3046875.4916992-.3046875.4887695 0 .4697266.1787109.4697266.2441406 0 .2353516-.1362305.1210938-.1801758.3164063-.0161133.0888672-.0410156.3125-.0410156.4013672 0 .0322266-.0024414.1220703.0273438.1220703.0493164 0 .4208984-.5078125.4208984-.6132813 0-.0488281-.0522461-.1054688-.0522461-.2109375 0-.109375.0356445-.2597656.4726563-.2597656.3139648 0 .3549805.1464844.3549805.2724609 0 .2714844-.1582031.1132813-.2949219.2792969z"/><path d="m27.6943359 46.7373047c-.1230469 0-.2485352.0361328-.371582.0361328-.1748047 0-.2294922-.1054688-.2294922-.2392578 0-.2431641.1694336-.1298828.2294922-.3896484.0629883-.2841797.1586914-1.2578125.1586914-1.5625 0-.3164063-.1694336-.1992188-.1694336-.421875 0-.2353516.1445313-.2880859.2758789-.2802734.0683594.0039063.1362305.0078125.2075195.0078125.0708008.0039063.1420898.0039063.2128906.0039063h.4287109c.0986328 0 .1586914-.0117188.199707-.0234375.0410156-.0126953.0654297-.0244141.0927734-.0244141.0927734 0 .2294922.2226563.2294922.6044922 0 .1503906-.0493164.3125-.1640625.3125-.2211914 0-.0957031-.4023438-.4204102-.4023438-.2758789 0-.2402344.0732422-.2705078.5039063-.0083008.1582031-.0302734.1904297.0600586.1904297.1611328 0 .0683594-.3730469.237793-.3730469.1665039 0 .1826172.3242188.1826172.5068359 0 .2158203-.0488281.7431641-.2402344.7431641-.2021484 0-.043457-.4101563-.2128906-.4101563-.1147461 0-.0844727.3779297-.0844727.5039063 0 .2548828.0024414.2470703.1826172.2470703.4262695 0 .328125-.5234375.5493164-.5234375.1308594 0 .1635742.1582031.1635742.3242188 0 .3779297-.1884766.6943359-.2895508.6943359-.0161133 0-.0327148-.0078125-.0625-.0166016-.0327148-.0039063-.0795898-.0117188-.1669922-.0117188z"/><path d="m30.4077148 43.8916016c.1064453 0 .1586914-.0117188.1938477-.0234375.0356445-.0126953.0546875-.0244141.090332-.0244141.1665039 0 .2651367.4423828.2651367.6367188 0 .2148438-.0712891.40625-.2270508.40625-.2075195 0-.171875-.5039063-.2919922-.5039063-.0874023 0-.090332.1708984-.1123047.4628906-.0161133.2441406-.0737305.8730469-.0737305 1.2177734 0 .3486328.2080078.1708984.2080078.4140625 0 .1220703-.0986328.2919922-.6665039.2919922-.4916992 0-.5-.1904297-.5-.2753906 0-.2441406.1938477-.1220703.2431641-.3173828.0654297-.2597656.1611328-1.5986328.1611328-1.6591797 0-.0615234-.0166016-.1347656-.0654297-.1347656-.1367188 0-.1040039.5039063-.347168.5039063-.1254883 0-.1938477-.1298828-.1938477-.3046875 0-.2558594.1586914-.7382813.3603516-.7382813.0273438 0 .0522461.0117188.0795898.0244141.0297852.0117188.0600586.0234375.0981445.0234375z"/><path d="m31.9882813 46.1123047c.1391602 0 .2319336-.1132813.324707-.2519531.0576172-.0849609.1503906-.2714844.2485352-.2714844.1123047 0 .1611328.1171875.1611328.2714844 0 .2158203-.1118164.6171875-.28125.6337891-.0571289.0078125-.0571289.0078125-.1118164.0488281-.2128906.1660156-.371582.2509766-.6171875.2509766-.4536133 0-.7895508-.4052734-.7895508-1.1035156 0-.9179688.4863281-1.8427734 1.1469727-1.8554688.1831055-.0039063.2978516.09375.328125.09375.0327148 0 .0791016-.0410156.1171875-.0410156.1586914 0 .2871094.3857422.2871094.6376953 0 .2275391-.0849609.4296875-.2514648.4296875-.2539063 0-.2158203-.53125-.4614258-.53125-.2734375 0-.3935547.7832031-.3935547 1.0800781-.0000001.2753906.0712889.6083984.2924804.6083984z"/><path d="m33.6689453 46.2216797c0 .1669922.1201172.0898438.1201172.2724609 0 .1455078-.0605469.2753906-.4667969.2753906-.3330078 0-.5131836-.0244141-.5131836-.2597656 0-.1787109.1503906-.1699219.1748047-.2919922.1225586-.6171875.1547852-1.3027344.1547852-1.7128906 0-.2353516-.1547852-.1132813-.1547852-.3369141 0-.0449219-.0410156-.3085938.5952148-.3085938.3300781 0 .3984375.09375.3984375.2392578 0 .2353516-.1611328.1630859-.1855469.3984375-.0224609.2109375-.0361328.3525391-.0361328.4384766 0 .0566406-.0214844.1171875.2324219.1171875.0498047 0 .1669922-.0078125.1884766-.0976563.0195313-.0771484.0332031-.3935547.0332031-.4863281 0-.2236328-.1201172-.1347656-.1201172-.3330078 0-.2070313.1064453-.2763672.5566406-.2763672.3662109 0 .4238281.09375.4238281.2314453 0 .2675781-.1748047.09375-.2021484.40625-.0468749.5029298-.1152343 1.1123048-.1259765 1.6357423-.0048828.2998047.1474609.0966797.1474609.3652344 0 .1542969-.0898438.2714844-.4638672.2714844-.3935547 0-.5332031-.0244141-.5332031-.2597656 0-.2109375.1425781-.109375.1669922-.2958984.0380859-.2880859.0595703-.4462891.0595703-.5644531 0-.1259766-.1171875-.1298828-.1767578-.1298828-.2324219 0-.2275391.0488281-.2460938.2109375z"/><path d="m36.9560547 45.3613281c-.0712891.7304688-.1699219 1.4326172-.9208984 1.4326172-.4394531 0-.8251953-.2109375-.8251953-.8603516 0-.4707031.1123047-.9902344.109375-1.4082031-.0019531-.2763672-.1796875-.0898438-.1796875-.3330078 0-.0322266-.0634766-.3330078.6337891-.3330078.4316406 0 .4423828.1669922.4423828.2802734 0 .2841797-.2128906.0605469-.2402344.5361328-.0791016.9414063-.0683594.6894531-.0908203 1.0791016-.015625.296875.0605469.4628906.2539063.4628906.1777344 0 .2978516-.1220703.3583984-.3691406.0869141-.3496094.125-.9541016.125-1.3271484 0-.3125-.2148438-.1142578-.2148438-.40625 0-.1542969.0732422-.2558594.4306641-.2558594.4589844 0 .4404297.1865234.4404297.2480469 0 .2958984-.2050781.0927734-.2382813.421875z"/><path d="m38.0439453 46.0107422c-.0439453.4628906.1777344.1992187.1777344.4785156 0 .2070313-.1669922.2802734-.5957031.2802734-.4833984 0-.4833984-.1699219-.4833984-.2714844 0-.2480469.1445313-.0654297.1972656-.3291016.0703125-.3613281.171875-1.3720703.171875-1.7412109 0-.1992188-.1943359-.0449219-.1943359-.2919922 0-.2275391.1748047-.2636719.2919922-.2636719.0664063 0 .1474609.0039063.2246094.0078125.0791016.0078125.1503906.0117188.1962891.0117188.0712891 0 .1425781-.0039063.2158203-.0117188.0712891-.0039063.1425781-.0078125.2128906-.0078125.3388672 0 .6015625.1738281.6015625.7460938 0 .5361328-.2431641 1.0878906-.8740234 1.0878906-.0439453 0-.0849609-.0039063-.1289063-.0039063zm.0625-1.0429688c-.0048828.0605469-.0185547.1865234-.0185547.2392578 0 .0654297.0107422.0693359.0517578.0693359.2128906 0 .2509766-.515625.2509766-.7470703 0-.1621094-.0488281-.2558594-.1582031-.2558594-.0683594 0-.0712891.1015625-.0957031.3613281z"/><path d="m32.0874023 50.0429688-1.2871094-1.2861328h-1.3447266c.0000001-.0000001 1.7539064-1.9316407 2.631836 1.2861328z" fill="url(#g)"/><path d="m32.0961914 50.21875c-.0029297 0-.0058594 0-.0087891 0-.0454102 0-.090332-.0175781-.1240234-.0517578l-1.2358398-1.234375h-1.2719727c-.0693359 0-.1323242-.0410156-.1606445-.1044922-.027832-.0634766-.0161133-.1376953.0307617-.1894531.0234375-.0253906.5820313-.6318359 1.269043-.6318359.7329102 0 1.2871094.6523438 1.6479492 1.9394531.0185547.0283203.0288086.0615234.0288086.0966797 0 .0966796-.0786133.1757812-.175293.1757812zm-2.1552734-1.6376953h.859375c.0463867 0 .0913086.0185547.1240234.0517578l.7543945.7539063c-.237793-.5566406-.5859375-1.0292969-1.0839844-1.0292969-.2436523 0-.4746093.1074219-.6538085.2236328z" fill="#230b00"/><path d="m32.0004883 49.8730469s.8779297-1.5205078 1.9301758-1.2871094c0 0-1.8706055-1.0527344-1.9301758 1.2871094z" fill="url(#h)"/><path d="m32.0004883 50.0488281c-.015625 0-.0317383-.0019531-.0473633-.0068359-.0776367-.0214844-.1298828-.0927734-.1279297-.1738281.0375977-1.4736328.7915039-1.6943359 1.2373047-1.6943359.4892578 0 .9355469.2490234.9541016.2587891.0761719.0429688.109375.1347656.078125.2158203-.03125.0820313-.1181641.1289063-.2021484.1083984-.0605469-.0126953-.1220703-.0195313-.1835938-.0195313-.840332 0-1.5493164 1.2109375-1.5566406 1.2236328-.0317383.0546875-.0903321.0878906-.1518555.0878906zm1.0620117-1.5234375c-.402832 0-.6704102.2314453-.7988281.6894531.2182617-.2519531.5117188-.5273438.8544922-.6884766-.0185547-.0009765-.0371094-.0009765-.0556641-.0009765z" fill="#230b00"/><path d="m32.0004883 49.6464844s.0410156-2.8505859-.7314453-1.9345703z" fill="url(#i)"/><path d="m32.0004883 49.8085938c-.0664063 0-.1274414-.0410156-.1518555-.1044922l-.7314453-1.9345703c-.0209961-.0556641-.0102539-.1171875.027832-.1621094.1357422-.1611328.2666016-.2392578.4003906-.2392578.0639648 0 .1591797.0195313.2495117.1113281.3745117.3789063.3720703 1.8740234.3676758 2.1689453-.0009766.078125-.0571289.1445313-.1342773.1582031-.0092773.0009766-.0185547.0019532-.027832.0019532zm-.5439453-2.0595704.3427734.90625c-.0546875-.5556641-.1572266-.9365234-.2539063-.9628906-.0097656 0-.040039.0117188-.0888671.0566406z" fill="#230b00"/><path d="m35.7177734 51.3720703c0-1.3779297-1.1152344-2.4951172-2.4921875-2.4951172-.2197266 0-.4272461.0371094-.628418.0888672-.1308594-.0205078-.2636719-.0390625-.4003906-.0390625-.2373047 0-.4619141.0449219-.6796875.1064453-.2421875-.078125-.4951172-.1318359-.7636719-.1318359-1.3642578 0-2.4707031 1.1064453-2.4707031 2.4707031 0 1.2841797.9833984 2.3261719 2.2353516 2.4462891.4101563.2128906.9111328.3427734 1.4580078.3427734.5214844 0 1.0039063-.1152344 1.4018555-.3105469 1.3046875-.0800781 2.3398437-1.1542968 2.3398437-2.4785156z" fill="url(#j)"/><path d="m31.9760742 54.3076172c-.5351563 0-1.0532227-.1191406-1.5004883-.3457031-1.3359375-.1425781-2.3398438-1.2509766-2.3398438-2.5898438 0-1.4433594 1.1743164-2.6171875 2.6176758-2.6171875.2421875 0 .4931641.0410156.7666016.125.4189453-.1132813.7607422-.1123047 1.0703125-.0634766.2348633-.0585938.4379883-.0859375.6352539-.0859375 1.4550781 0 2.6386719 1.1845703 2.6386719 2.6416016 0 1.3769531-1.0722656 2.5234375-2.4482422 2.6230469-.4277343.2050781-.9252929.3125-1.4399414.3125zm-1.2226562-5.2597656c-1.28125 0-2.3237305 1.0429688-2.3237305 2.3242188 0 1.1962891.9038086 2.1855469 2.1025391 2.2998047.0185547.0019531.0366211.0078125.0532227.0166016.8095703.4179688 1.9257813.4238281 2.7280273.0302734.0175781-.0087891.0361328-.0136719.0556641-.0146484 1.234375-.0761719 2.2021484-1.1005859 2.2021484-2.3320313 0-1.2949219-1.0527344-2.3486328-2.3457031-2.3486328-.1806641 0-.3686523.0273438-.5917969.0849609-.0195313.0048828-.0390625.0078125-.0595703.0019531-.2993164-.0458984-.6103516-.0507813-1.0170898.0644531-.0292969.0058594-.0581055.0068359-.0849609-.0019531-.260254-.0839844-.4956056-.125-.7187501-.125z" fill="#230b00"/><path d="m31.6381836 49.0761719s.1914063-.5683594.6777344-.1064453c.4873047.4599609.769043 1.5371094.769043 1.5371094s-1.5297852-.9843751-1.4467774-1.4306641z" fill="url(#k)"/><path d="m33.09375 50.6826172c-.0039063-.0009766-.0068359-.0009766-.0087891 0-.0332031 0-.0664063-.0097656-.0947266-.0283203-.4902343-.3154297-1.6191405-1.1025391-1.524414-1.6103516.0571289-.1748047.2182617-.4306641.5-.4306641.1523438 0 .3110352.0771484.4711914.2294922.4594727.4335938.7387695 1.3388672.8032227 1.5673828.0185547.0283203.0292969.0615234.0292969.0966797 0 .0966797-.0791016.1757813-.1757813.1757813zm-1.1279297-1.71875c-.0976563 0-.1611328.1679688-.1616211.1699219-.0205078.1181641.3974609.5273438.9516602.9335938-.1240234-.3271484-.3164063-.7392578-.5605469-.9697266-.121582-.116211-.1962891-.1337891-.2294922-.1337891z" fill="#230b00"/><ellipse cx="30.211426" cy="50.15332" fill="#fff" rx=".560547" ry=".504883"/></svg>